<svg width="60" height="60" viewBox="0 0 1024 1024" fill="none" xmlns="http://www.w3.org/2000/svg">
<g clip-path="url(#clip0_1_196)">
<rect width="1024" height="1024" fill="#DC2626"/>
<g clip-path="url(#clip1_1_196)">
<path d="M139.703 721.073L522.45 152.122L543.221 121.237C560.578 95.444 596.211 90.4172 621.005 110.067C776.768 233.521 894.894 407.077 948.083 611.709C956.02 642.227 936.919 672.667 906.407 678.107L873.942 683.901L194.535 805.151C147.824 813.484 113.229 760.432 139.703 721.073Z" fill="#ECB67C"/>
<path d="M532.991 136.372L543.199 121.203C560.556 95.4105 596.189 90.3837 620.983 110.034C776.746 233.487 894.88 407.038 948.075 611.679C956.012 642.196 936.911 672.637 906.399 678.076L890.894 680.847C890.894 680.847 842.919 498.77 761.334 375.627C679.75 252.484 532.991 136.372 532.991 136.372Z" fill="#E1AC77"/>
<path d="M124.289 791.723C124.178 791.555 124.073 791.396 123.968 791.237C107.409 765.853 107.434 734.781 124.008 710.133L527.519 110.302C538.805 93.5289 556.052 82.6805 576.083 79.7649C595.918 76.8714 616.477 82.4933 632.481 95.1789C797.909 226.294 913.361 403.379 966.366 607.255C971.479 626.904 968.312 647.871 957.693 664.781C947.082 681.685 929.729 693.386 910.099 696.89L198.222 823.926C169.16 829.103 140.889 816.778 124.289 791.723ZM155.419 732.011C147.383 743.958 147.376 758.437 155.394 770.753C163.478 783.256 176.676 788.902 190.865 786.365L902.729 659.326C912.317 657.622 920.451 652.125 925.64 643.87C930.824 635.607 932.316 625.768 929.819 616.175C878.986 420.603 768.225 250.741 609.54 124.973C601.681 118.74 591.996 116.089 582.269 117.512C572.638 118.92 564.353 124.119 558.927 132.194L155.419 732.011Z" fill="black"/>
<path d="M137.558 729.165L478.389 222.52C479.675 220.608 482.293 220.138 484.213 221.491C637.861 329.801 752.449 495.585 792.455 694.116C792.917 696.411 791.428 698.638 789.166 699.041L187.882 806.331C145.014 813.984 113.259 765.289 137.558 729.165Z" fill="#F8CC77"/>
<path d="M457.153 253.183L478.084 222.06C479.37 220.148 481.988 219.678 483.908 221.031C637.556 329.34 752.144 495.125 792.15 693.656C792.612 695.951 791.123 698.178 788.861 698.581L752.336 705.102C752.336 705.102 716.062 563.645 643.309 453.833C570.557 344.022 457.153 253.183 457.153 253.183Z" fill="#E9BB6D"/>
<path d="M122.117 794.872C122.017 794.721 121.917 794.57 121.812 794.411C106.265 770.573 106.275 741.378 121.847 718.236L462.681 211.577C466.128 206.463 471.377 203.058 477.459 201.991C483.54 200.925 489.706 202.33 494.816 205.941C659.008 321.679 771.307 493.845 810.955 690.699C812.194 696.813 810.994 703.027 807.564 708.166C804.133 713.305 798.895 716.727 792.825 717.811L191.561 825.112C164.271 829.982 137.702 818.396 122.117 794.872ZM153.267 740.108C146.248 750.538 146.235 763.179 153.247 773.922C160.412 784.276 171.834 789.761 184.212 787.545L770.828 682.868C731.702 506.85 631.12 352.618 485.779 245.802L153.267 740.108Z" fill="black"/>
<path d="M536.109 622.779C561.001 660.349 610.934 671.093 647.638 646.776C684.343 622.458 693.919 572.288 669.028 534.718C644.136 497.147 594.203 486.403 557.499 510.721C520.794 535.038 511.218 585.208 536.109 622.779Z" fill="#DC2626"/>
<path d="M520.47 633.141C489.771 586.804 501.625 524.703 546.893 494.712C592.161 464.721 653.969 478.019 684.668 524.356C715.367 570.692 703.513 632.794 658.245 662.785C612.977 692.776 551.169 679.477 520.47 633.141ZM653.388 545.079C634.382 516.392 596.123 508.167 568.105 526.73C540.088 545.292 532.749 583.738 551.749 612.417C570.75 641.096 609.015 649.329 637.032 630.767C665.05 612.205 672.394 573.767 653.388 545.079Z" fill="black"/>
<path d="M387.433 554.165C350.725 578.485 300.793 567.734 275.904 530.168C274.612 528.218 273.408 526.222 272.299 524.211L351.705 405.879C374.066 409.019 395.192 421.551 408.814 442.112C433.716 479.681 424.133 529.85 387.433 554.165Z" fill="#DC2626"/>
<path d="M260.256 540.535C258.654 538.117 257.172 535.667 255.799 533.168C252.336 526.841 252.629 519.168 256.572 513.293L335.972 394.953C339.915 389.078 346.838 385.996 353.897 386.991C382.546 391.01 408.262 407.328 424.446 431.756C455.145 478.092 443.291 540.194 398.023 570.185C352.755 600.176 290.955 586.872 260.256 540.535ZM360.371 427.305L295.064 524.639C314.981 549.375 350.442 555.649 376.824 538.17C404.85 519.602 412.18 481.161 393.18 452.482C385.265 440.518 373.65 431.705 360.371 427.305Z" fill="black"/>
<path d="M264.124 792.728C249.304 757.45 260.577 715.939 292.928 694.506C329.636 670.186 379.568 680.937 404.457 718.503C413.793 732.596 418.279 748.457 418.308 764.056L264.124 792.728Z" fill="#DC2626"/>
<path d="M248.49 803.098C247.819 802.085 247.232 801.005 246.752 799.854C228.122 755.54 243.084 704.505 282.319 678.511C327.587 648.52 389.395 661.819 420.094 708.155C431.249 724.993 437.16 744.462 437.201 764.447C437.215 773.506 430.906 781.19 422.109 782.827L267.925 811.499C260.346 812.896 252.709 809.466 248.49 803.098ZM388.83 728.868C369.825 700.181 331.565 691.956 303.539 710.523C283.534 723.778 273.722 747.534 277.312 770.817L397.523 748.469C395.77 741.562 392.856 734.943 388.83 728.868Z" fill="black"/>
</g>
</g>
<defs>
<clipPath id="clip0_1_196">
<rect width="1024" height="1024" fill="white"/>
</clipPath>
<clipPath id="clip1_1_196">
<rect width="880.206" height="859.911" fill="white" transform="translate(597.858 -44) rotate(56.4747)"/>
</clipPath>
</defs>
</svg>
